<svg width="230" height="257" viewBox="0 0 230 257" fill="none" xmlns="http://www.w3.org/2000/svg">
<g clip-path="url(#clip0_2_990)">
<path d="M219.18 242.238C217.747 242.742 216.207 242.869 214.711 242.605C213.214 242.341 211.81 241.696 210.635 240.731C207.642 238.216 206.703 234.073 205.94 230.237L203.682 218.89L208.41 222.149C211.81 224.493 215.287 226.912 217.641 230.307C219.996 233.702 221.023 238.336 219.132 242.009" fill="#E6E6E6"/>
<path d="M218.776 255.976C219.254 252.486 219.746 248.952 219.411 245.425C219.113 242.293 218.158 239.234 216.215 236.725C215.183 235.396 213.928 234.257 212.505 233.36C212.134 233.126 211.793 233.714 212.162 233.947C214.623 235.505 216.527 237.804 217.599 240.514C218.782 243.528 218.972 246.813 218.767 250.014C218.643 251.95 218.382 253.873 218.119 255.794C218.097 255.881 218.11 255.973 218.154 256.051C218.198 256.129 218.271 256.187 218.356 256.213C218.443 256.237 218.536 256.225 218.614 256.18C218.692 256.136 218.75 256.062 218.774 255.975L218.776 255.976Z" fill="#F2F2F2"/>
<path d="M201.64 198.017H3.83545V0H201.64V198.017Z" fill="white"/>
<path d="M201.64 198.017H3.83545V0H201.64V198.017ZM6.75797 195.091H198.717V2.92569H6.75797V195.091Z" fill="#E5E5E5"/>
<path d="M166.599 30.9798H80.9409V33.651H166.599V30.9798Z" fill="#E5E5E5"/>
<path d="M166.599 37.9248H80.9409V40.5959H166.599V37.9248Z" fill="#E5E5E5"/>
<path d="M166.599 44.8698H80.9409V47.5409H166.599V44.8698Z" fill="#E5E5E5"/>
<path d="M166.599 90.6149H80.9409V93.286H166.599V90.6149Z" fill="#E5E5E5"/>
<path d="M166.599 97.5599H80.9409V100.231H166.599V97.5599Z" fill="#E5E5E5"/>
<path d="M166.599 104.505H80.9409V107.176H166.599V104.505Z" fill="#E5E5E5"/>
<path d="M166.599 150.25H80.9409V152.921H166.599V150.25Z" fill="#E5E5E5"/>
<path d="M166.599 157.195H80.9409V159.866H166.599V157.195Z" fill="#E5E5E5"/>
<path d="M166.599 164.14H80.9409V166.811H166.599V164.14Z" fill="#E5E5E5"/>
<path d="M46.6501 52.2621C45.1868 51.4901 43.6593 50.8466 42.085 50.3388L41.8842 48.1157L33.7426 47.2376L32.7078 50.0791L29.786 51.1768C29.6814 51.2165 29.5819 51.2684 29.4895 51.3314H29.4863C29.3232 51.4417 29.1844 51.5841 29.0781 51.75C28.9719 51.9159 28.9006 52.1017 28.8686 52.2961C28.8374 52.4894 28.8447 52.6869 28.8903 52.8774L29.0447 53.5112C29.267 53.6442 29.4956 53.7709 29.7241 53.8915L29.8694 53.9657C30.203 54.1389 30.5427 54.3028 30.8917 54.4543C30.9628 54.4852 31.04 54.5161 31.111 54.547C31.1172 54.5501 31.1202 54.5501 31.1264 54.5532C31.2902 54.6212 31.4538 54.6862 31.6206 54.748C32.1685 54.9575 32.7273 55.1371 33.2946 55.286C34.7425 55.6723 36.2346 55.8677 37.7331 55.8673C38.2798 55.8673 38.8203 55.8426 39.3546 55.79C40.5755 55.6772 41.7809 55.4336 42.9499 55.0634C42.9529 55.0634 42.9561 55.0603 42.9591 55.0603C43.6975 54.8248 44.4189 54.5386 45.1181 54.2038C45.1211 54.2007 45.1273 54.2007 45.1305 54.1977C45.2879 54.1234 45.4394 54.0431 45.5938 53.9657L45.6678 53.9286C45.7913 53.8637 45.915 53.7988 46.0385 53.7307C46.3474 53.5607 46.6501 53.3813 46.9496 53.1896C47.033 53.1401 47.1134 53.0876 47.1968 53.032C47.3141 52.9547 47.4314 52.8743 47.5458 52.7908C47.2585 52.6053 46.959 52.429 46.6501 52.2621Z" fill="#3F3D56"/>
<path d="M31.3702 53.6318L30.8606 51.3283H29.5294C29.516 51.3285 29.5026 51.3295 29.4893 51.3314H29.4861C29.0077 51.3719 28.547 51.5313 28.1457 51.7952C27.8735 51.9691 27.6315 52.1863 27.4292 52.4383C27.8245 52.7382 28.2353 53.0165 28.6585 53.2824L28.677 53.2917C28.7974 53.3659 28.921 53.4401 29.0446 53.5112C29.2669 53.6442 29.4955 53.771 29.724 53.8915L29.8692 53.9657C30.2028 54.1389 30.5426 54.3028 30.8916 54.4543C30.9626 54.4852 31.0398 54.5161 31.1109 54.547C31.1171 54.5501 31.1201 54.5501 31.1263 54.5532C31.29 54.6213 31.4537 54.6862 31.6205 54.748L31.3702 53.6318Z" fill="#3F3D56"/>
<path d="M37.4936 45.8321C40.732 45.8321 43.3573 43.204 43.3573 39.9621C43.3573 36.7202 40.732 34.0921 37.4936 34.0921C34.2552 34.0921 31.6299 36.7202 31.6299 39.9621C31.6299 43.204 34.2552 45.8321 37.4936 45.8321Z" fill="#FFB8B8"/>
<path d="M33.557 37.103C34.164 37.8221 35.1912 38.025 36.1388 38.1082C38.3543 38.2307 40.5761 38.0491 42.7423 37.5684C42.8766 38.8708 42.5106 40.2751 43.2769 41.3464C43.6361 40.0494 43.845 38.7153 43.8994 37.3704C43.9566 36.7934 43.8813 36.2109 43.6793 35.6675C43.5714 35.3952 43.3892 35.1586 43.1536 34.9847C42.918 34.8108 42.6384 34.7066 42.3466 34.6839C42.7834 34.3521 43.2952 34.1331 43.8366 34.0462L41.9747 33.1095L42.4528 32.6182L39.082 32.4117L40.0584 31.7908C38.5889 31.5886 37.1024 31.5417 35.6232 31.6506C34.9319 31.6509 34.2538 31.8396 33.6615 32.1965C33.105 32.5949 32.7834 33.3867 33.1289 33.9717C32.6963 34.0428 32.2891 34.2233 31.9457 34.496C31.6023 34.7688 31.3342 35.1248 31.1667 35.5303C30.9548 36.1749 30.9037 36.8616 31.0177 37.5305C31.1447 38.6037 31.3938 39.6588 31.7603 40.6753L33.557 37.103Z" fill="#2F2E41"/>
<path d="M53.9824 33.5989C53.1597 31.2329 51.8313 29.075 50.0899 27.2757C48.3485 25.4764 46.2361 24.079 43.8998 23.181C41.5635 22.283 39.0596 21.906 36.5628 22.0762C34.066 22.2465 31.6364 22.9599 29.4433 24.1667C27.2502 25.3736 25.3465 27.0448 23.8649 29.0638C22.3833 31.0829 21.3595 33.4012 20.8648 35.857C20.3702 38.3129 20.4166 40.8472 21.0009 43.2832C21.5852 45.7192 22.6933 47.9984 24.2479 49.9616C24.4023 50.1564 24.5629 50.3512 24.7267 50.5398C24.7391 50.5522 24.7483 50.5646 24.7606 50.5769C25.1632 51.0413 25.5911 51.4831 26.0424 51.9003C26.1599 52.0085 26.2834 52.1198 26.4069 52.225C26.6416 52.4352 26.8826 52.6362 27.1328 52.8279C27.2315 52.9052 27.3273 52.9825 27.4293 53.0567C27.8245 53.3566 28.2354 53.6349 28.6585 53.9008L28.6771 53.9101C28.7974 53.9843 28.9211 54.0585 29.0446 54.1296C29.267 54.2626 29.4956 54.3894 29.7241 54.5099L29.8693 54.5842C30.2029 54.7573 30.5427 54.9212 30.8917 55.0727C30.9627 55.1036 31.0399 55.1345 31.1109 55.1655C31.1171 55.1685 31.1201 55.1685 31.1263 55.1716C31.2901 55.2397 31.4537 55.3046 31.6205 55.3664C32.1684 55.5759 32.7273 55.7555 33.2946 55.9044C34.7425 56.2907 36.2346 56.4862 37.733 56.4857C38.2797 56.4857 38.8202 56.461 39.3546 56.4084C40.5755 56.2956 41.7808 56.052 42.9498 55.6818C42.9528 55.6818 42.956 55.6787 42.959 55.6787C43.6975 55.4432 44.4189 55.157 45.118 54.8222C45.1211 54.8191 45.1272 54.8191 45.1304 54.8161C45.2879 54.7418 45.4393 54.6615 45.5937 54.5842L45.6678 54.547C45.7913 54.4821 45.9149 54.4172 46.0385 54.3492C46.3473 54.1791 46.65 53.9998 46.9495 53.8081C47.0329 53.7586 47.1133 53.706 47.1967 53.6504C47.314 53.5731 47.4314 53.4927 47.5457 53.4092C47.697 53.3041 47.8484 53.1958 47.9966 53.0845C48.0429 53.0505 48.0924 53.0165 48.1387 52.9794C51.0324 50.7807 53.1563 47.7212 54.2061 44.2397C55.2559 40.7581 55.1776 37.0332 53.9824 33.5989V33.5989ZM47.5704 52.2281C47.4685 52.3084 47.3635 52.3857 47.2584 52.4569C47.1564 52.5342 47.0547 52.6084 46.9495 52.6764C46.86 52.7413 46.7704 52.8032 46.6778 52.8619L46.65 52.8805C46.582 52.9269 46.5141 52.9701 46.4461 53.0134C46.1897 53.1742 45.9303 53.3288 45.6678 53.4772L45.5844 53.5236C45.467 53.5885 45.3497 53.6504 45.2324 53.7122C45.2168 53.7215 45.1983 53.7277 45.1829 53.7369L45.1644 53.7462C45.0161 53.8235 44.8647 53.8977 44.7134 53.9689C44.1294 54.2504 43.5279 54.4941 42.9127 54.6986C42.8323 54.7264 42.7521 54.7542 42.6719 54.7789C41.5654 55.1313 40.4242 55.3635 39.2681 55.4716C38.7616 55.5179 38.2488 55.5427 37.733 55.5427C36.3157 55.5456 34.9043 55.3605 33.5356 54.9923C32.8331 54.8088 32.1447 54.5752 31.4755 54.2935C31.4414 54.278 31.4043 54.2657 31.3703 54.2502C31.3334 54.2348 31.2993 54.2224 31.2654 54.2069C31.2283 54.1915 31.1943 54.176 31.1572 54.1575C30.8669 54.0307 30.5796 53.8916 30.2987 53.7462L30.1628 53.6751C29.8198 53.4958 29.4832 53.3041 29.1558 53.1C29.06 53.0413 28.9612 52.9794 28.8685 52.9145C28.8439 52.899 28.8222 52.8836 28.7975 52.8681C28.5782 52.7228 28.3589 52.5713 28.1458 52.4136C28.0007 52.3054 27.8555 52.1971 27.7134 52.0858C27.4756 51.9065 27.2469 51.7148 27.0246 51.5169C26.9073 51.418 26.793 51.3097 26.6818 51.2077C26.2439 50.8029 25.8293 50.3735 25.4402 49.9215C25.3105 49.773 25.1838 49.6246 25.0633 49.47C25.0359 49.4394 25.0101 49.4075 24.9861 49.3742C22.9793 46.8391 21.7722 43.7631 21.5188 40.5385C21.2654 37.3139 21.9772 34.0868 23.5633 31.2688C25.1494 28.4508 27.5381 26.1696 30.4246 24.7161C33.3111 23.2626 36.5646 22.7026 39.7703 23.1077C42.9759 23.5128 45.9884 24.8645 48.4236 26.9905C50.8587 29.1165 52.6061 31.9204 53.443 35.0446C54.2798 38.1688 54.1682 41.4717 53.1222 44.5321C52.0763 47.5926 50.1435 50.2718 47.5704 52.2281L47.5704 52.2281Z" fill="#3F3D56"/>
<path d="M53.9824 93.2339C53.1597 90.8679 51.8313 88.71 50.0899 86.9107C48.3485 85.1114 46.236 83.7141 43.8997 82.8161C41.5635 81.9181 39.0596 81.541 36.5628 81.7113C34.066 81.8815 31.6364 82.5949 29.4433 83.8018C27.2502 85.0086 25.3465 86.6798 23.8649 88.6989C22.3833 90.7179 21.3595 93.0362 20.8648 95.492C20.3702 97.9479 20.4166 100.482 21.0009 102.918C21.5852 105.354 22.6933 107.633 24.2478 109.597C24.4023 109.791 24.5629 109.986 24.7265 110.175C24.7389 110.187 24.7481 110.2 24.7605 110.212C25.1632 110.676 25.5911 111.118 26.0424 111.535C26.1597 111.644 26.2832 111.755 26.4067 111.86C26.6416 112.07 26.8824 112.271 27.1326 112.463C27.6211 112.848 28.1305 113.207 28.6584 113.536L28.6769 113.545C29.0197 113.758 29.3687 113.956 29.724 114.145L29.8691 114.219C30.2027 114.392 30.5425 114.556 30.8915 114.708C30.9625 114.739 31.0397 114.77 31.1108 114.8C31.1169 114.804 31.1201 114.804 31.1263 114.807C31.8315 115.1 32.5559 115.345 33.2945 115.539C34.7424 115.926 36.2344 116.121 37.7328 116.121C38.2795 116.121 38.82 116.096 39.3544 116.043C40.5753 115.931 41.7806 115.687 42.9496 115.317C42.9528 115.317 42.9558 115.314 42.9588 115.314C43.6973 115.078 44.4187 114.792 45.1179 114.457C45.1209 114.454 45.1272 114.454 45.1302 114.451C45.2877 114.377 45.4391 114.296 45.5935 114.219L45.6677 114.182C45.7912 114.117 45.9148 114.052 46.0383 113.984C46.3472 113.814 46.6498 113.635 46.9495 113.443C47.0329 113.394 47.1131 113.341 47.1965 113.285C47.4683 113.106 47.737 112.914 47.9964 112.72C48.0429 112.686 48.0922 112.652 48.1387 112.614C51.0322 110.416 53.1561 107.356 54.2059 103.875C55.2557 100.393 55.1774 96.6682 53.9824 93.2339V93.2339Z" fill="white"/>
<path d="M43.4112 105.996C44.8354 105.996 45.99 104.84 45.99 103.414C45.99 101.989 44.8354 100.833 43.4112 100.833C41.9871 100.833 40.8325 101.989 40.8325 103.414C40.8325 104.84 41.9871 105.996 43.4112 105.996Z" fill="#2F2E41"/>
<path d="M44.1294 100.904C44.5757 100.904 45.0144 101.02 45.4026 101.241C45.7907 101.461 46.115 101.779 46.3438 102.162C46.5726 102.546 46.698 102.983 46.7078 103.429C46.7175 103.876 46.6113 104.318 46.3996 104.711C46.6231 104.431 46.7859 104.107 46.8775 103.761C46.9692 103.414 46.9878 103.053 46.9322 102.698C46.8765 102.344 46.7477 102.006 46.5541 101.704C46.3605 101.403 46.1063 101.145 45.8076 100.947C45.509 100.749 45.1725 100.616 44.8195 100.556C44.4666 100.495 44.105 100.509 43.7577 100.597C43.4104 100.684 43.0851 100.843 42.8025 101.063C42.5199 101.283 42.2862 101.559 42.1162 101.875C42.3573 101.572 42.6635 101.327 43.0121 101.159C43.3608 100.991 43.7428 100.904 44.1297 100.904L44.1294 100.904Z" fill="#2F2E41"/>
<path d="M38.5923 103.409C42.776 103.409 46.1676 100.014 46.1676 95.8255C46.1676 91.6373 42.776 88.2421 38.5923 88.2421C34.4086 88.2421 31.0171 91.6373 31.0171 95.8255C31.0171 100.014 34.4086 103.409 38.5923 103.409Z" fill="#2F2E41"/>
<path d="M32.6467 91.1204C33.9519 89.6509 35.7765 88.7465 37.7352 88.5981C39.694 88.4497 41.6337 89.069 43.145 90.3251C43.0832 90.2661 43.0214 90.2067 42.9575 90.1495C41.4611 88.8075 39.4934 88.1156 37.4874 88.2259C35.4813 88.3362 33.6012 89.2398 32.2606 90.7378C30.9201 92.2358 30.2288 94.2056 30.3391 96.2138C30.4493 98.222 31.3519 100.104 32.8483 101.446C32.8627 101.459 32.8771 101.472 32.8916 101.485C32.9558 101.542 33.0219 101.596 33.0877 101.651C31.6645 100.295 30.823 98.4395 30.7408 96.4748C30.6585 94.5101 31.342 92.5902 32.6469 91.1204L32.6467 91.1204Z" fill="#2F2E41"/>
<path d="M38.5278 103.345C41.2223 103.345 43.4066 101.158 43.4066 98.4604C43.4066 95.763 41.2223 93.5763 38.5278 93.5763C35.8333 93.5763 33.6489 95.763 33.6489 98.4604C33.6489 101.158 35.8333 103.345 38.5278 103.345Z" fill="#A0616A"/>
<path d="M47.2584 111.186V112.825C46.9587 113.016 46.656 113.196 46.3472 113.366C46.2236 113.434 46.1001 113.499 45.9766 113.564L45.9024 113.601C45.748 113.678 45.5966 113.758 45.4391 113.833C45.4361 113.836 45.4298 113.836 45.4268 113.839C44.7276 114.174 44.0062 114.46 43.2677 114.695C43.2647 114.695 43.2617 114.698 43.2585 114.698C42.0895 115.069 40.8842 115.312 39.6633 115.425C39.1289 115.478 38.5884 115.502 38.0417 115.502C36.5433 115.503 35.0513 115.307 33.6034 114.921C32.8648 114.727 32.1404 114.482 31.4352 114.188C31.429 114.185 31.4258 114.185 31.4196 114.182C31.3486 114.151 31.2714 114.12 31.2004 114.089C30.8514 113.938 30.5116 113.774 30.178 113.601L30.0329 113.527C29.6776 113.338 29.3286 113.14 28.9858 112.927L28.9673 112.917C28.4394 112.588 27.93 112.23 27.4415 111.845C27.1913 111.653 26.9504 111.452 26.7156 111.242C26.5921 111.136 26.4686 111.025 26.3513 110.917C25.9 110.5 25.472 110.058 25.0693 109.594C25.1227 109.272 25.2013 108.954 25.3042 108.644L25.3072 108.641C25.3257 108.588 25.3473 108.537 25.372 108.487C25.3891 108.442 25.4087 108.399 25.4307 108.357C25.9836 107.321 26.9844 107.064 28.226 107.009C28.9272 106.978 29.7023 107.012 30.521 107.003C30.9533 106.999 31.4011 106.984 31.849 106.944C34.6751 106.687 34.1625 105.017 34.289 104.118C34.4157 103.246 35.2003 104 35.2527 104.05L35.2558 104.053C36.855 104.802 38.6245 105.113 40.383 104.953C40.6856 104.915 40.9883 104.894 41.291 104.885C42.0879 104.875 41.9149 105.104 41.6401 105.293C41.5067 105.381 41.3674 105.459 41.2232 105.528C41.2232 105.528 41.0965 106.301 40.9668 107.457C40.8433 108.564 42.962 109.083 43.138 109.124C43.1417 109.126 43.146 109.127 43.1504 109.127C43.9242 108.926 44.7388 108.947 45.501 109.189H45.504C45.9395 109.349 46.328 109.616 46.6344 109.964C46.9408 110.313 47.1553 110.733 47.2584 111.186Z" fill="#32C0C6"/>
<path d="M31.4662 113.174C31.4662 113.403 31.4601 113.622 31.4508 113.83C31.4478 113.953 31.4416 114.074 31.4354 114.188C31.4292 114.185 31.4261 114.185 31.4199 114.182C31.3488 114.151 31.2716 114.12 31.2006 114.089C30.8516 113.938 30.5118 113.774 30.1782 113.601L30.0331 113.527C29.6778 113.338 29.3288 113.14 28.986 112.927C28.9952 112.819 29.0108 112.71 29.0261 112.602C29.0601 112.364 29.088 112.123 29.1065 111.885C29.228 110.212 28.9251 108.536 28.2262 107.012V107.009C28.1644 106.885 28.1274 106.817 28.1274 106.817C28.1274 106.817 29.0261 106.044 30.3079 106.817C30.3898 106.865 30.4621 106.928 30.5212 107.003C31.2933 107.915 31.5033 110.982 31.4662 113.174Z" fill="#2F2E41"/>
<path d="M45.4917 112.754C45.4793 113.1 45.4608 113.462 45.4392 113.83V113.833C45.4362 113.836 45.4299 113.836 45.4269 113.839C44.7277 114.174 44.0063 114.46 43.2678 114.695C43.2648 114.695 43.2618 114.698 43.2586 114.698L43.2247 113.83L43.2215 113.715L43.0579 109.485C43.0535 109.39 43.0685 109.294 43.1021 109.204C43.1357 109.114 43.1871 109.032 43.2532 108.963C43.3193 108.894 43.3987 108.838 43.4867 108.801C43.5747 108.763 43.6694 108.743 43.7652 108.743H45.3311C45.4083 108.743 45.464 108.901 45.5011 109.185V109.189C45.577 110.376 45.5739 111.567 45.4917 112.754Z" fill="#2F2E41"/>
<path d="M34.355 92.3553V97.2406H35.4848L36.9226 95.6984L36.7302 97.2406H41.7245L41.4157 95.6984L42.0334 97.2406H42.8297V92.3553H34.355Z" fill="#2F2E41"/>
<path d="M33.5849 98.1392C33.7976 98.1392 33.97 97.8227 33.97 97.4324C33.97 97.042 33.7976 96.7255 33.5849 96.7255C33.3721 96.7255 33.1997 97.042 33.1997 97.4324C33.1997 97.8227 33.3721 98.1392 33.5849 98.1392Z" fill="#A0616A"/>
<path d="M43.4711 98.1392C43.6838 98.1392 43.8562 97.8227 43.8562 97.4324C43.8562 97.042 43.6838 96.7255 43.4711 96.7255C43.2584 96.7255 43.0859 97.042 43.0859 97.4324C43.0859 97.8227 43.2584 98.1392 43.4711 98.1392Z" fill="#A0616A"/>
<path d="M48.3053 112.101C48.0459 112.296 47.7771 112.488 47.5054 112.667C47.422 112.723 47.3417 112.775 47.2583 112.825C46.9587 113.016 46.656 113.196 46.3471 113.366C46.2236 113.434 46.1001 113.499 45.9766 113.564V110.156C45.9766 110.156 46.4706 110.552 47.2583 111.211C47.3571 111.294 47.459 111.381 47.5672 111.473C47.7957 111.665 48.0429 111.875 48.3053 112.101Z" fill="#32C0C6"/>
<path d="M53.9824 93.2339C53.1597 90.8679 51.8313 88.71 50.0899 86.9107C48.3485 85.1114 46.236 83.7141 43.8997 82.8161C41.5635 81.9181 39.0596 81.541 36.5628 81.7113C34.066 81.8815 31.6364 82.5949 29.4433 83.8018C27.2502 85.0086 25.3465 86.6798 23.8649 88.6989C22.3833 90.7179 21.3595 93.0362 20.8648 95.492C20.3702 97.9479 20.4166 100.482 21.0009 102.918C21.5852 105.354 22.6933 107.633 24.2478 109.597C24.4023 109.791 24.5629 109.986 24.7265 110.175C24.7389 110.187 24.7481 110.2 24.7605 110.212C25.1632 110.676 25.5911 111.118 26.0424 111.535C26.1597 111.644 26.2832 111.755 26.4067 111.86C26.6416 112.07 26.8824 112.271 27.1326 112.463C27.6211 112.848 28.1305 113.207 28.6584 113.536L28.6769 113.545C29.0197 113.758 29.3687 113.956 29.724 114.145L29.8691 114.219C30.2027 114.392 30.5425 114.556 30.8915 114.708C30.9625 114.739 31.0397 114.77 31.1108 114.8C31.1169 114.804 31.1201 114.804 31.1263 114.807C31.8315 115.1 32.5559 115.345 33.2945 115.539C34.7424 115.926 36.2344 116.121 37.7328 116.121C38.2795 116.121 38.82 116.096 39.3544 116.043C40.5753 115.931 41.7806 115.687 42.9496 115.317C42.9528 115.317 42.9558 115.314 42.9588 115.314C43.6973 115.078 44.4187 114.792 45.1179 114.457C45.1209 114.454 45.1272 114.454 45.1302 114.451C45.2877 114.377 45.4391 114.296 45.5935 114.219L45.6677 114.182C45.7912 114.117 45.9148 114.052 46.0383 113.984C46.3472 113.814 46.6498 113.635 46.9495 113.443C47.0329 113.394 47.1131 113.341 47.1965 113.285C47.4683 113.106 47.737 112.914 47.9964 112.72C48.0429 112.686 48.0922 112.652 48.1387 112.614C51.0322 110.416 53.1561 107.356 54.2059 103.875C55.2557 100.393 55.1774 96.6682 53.9824 93.2339V93.2339ZM47.5702 111.863C47.4683 111.943 47.3633 112.021 47.2584 112.092C47.1564 112.169 47.0545 112.243 46.9495 112.311C46.8599 112.376 46.7704 112.438 46.6776 112.497C46.6004 112.55 46.5232 112.599 46.4459 112.648C46.1897 112.809 45.9303 112.964 45.6677 113.112L45.5842 113.159C45.4668 113.224 45.3495 113.285 45.2322 113.347C45.2167 113.357 45.1981 113.363 45.1827 113.372L45.1642 113.381C45.0159 113.459 44.8647 113.533 44.7133 113.604C44.1292 113.885 43.5278 114.129 42.9125 114.334C42.8323 114.361 42.7519 114.389 42.6717 114.414C41.5652 114.766 40.4241 114.998 39.268 115.107C38.7614 115.153 38.2486 115.178 37.7328 115.178C36.3156 115.181 34.9041 114.996 33.5354 114.627C32.833 114.444 32.1445 114.21 31.4753 113.929C31.4043 113.901 31.3332 113.87 31.2652 113.842C31.2282 113.826 31.1942 113.811 31.1571 113.792C30.8668 113.666 30.5796 113.527 30.2985 113.381L30.1626 113.31C29.8198 113.131 29.483 112.939 29.1556 112.735C29.0353 112.661 28.9148 112.584 28.7974 112.503C28.4267 112.259 28.0654 111.996 27.7132 111.721C27.4754 111.542 27.2469 111.35 27.0245 111.152C26.9071 111.053 26.7928 110.945 26.6817 110.843C26.2438 110.438 25.8292 110.008 25.44 109.556C25.3103 109.408 25.1837 109.26 25.0631 109.105C25.0357 109.074 25.01 109.042 24.9859 109.009C22.9791 106.474 21.7721 103.398 21.5187 100.174C21.2653 96.9489 21.977 93.7219 23.5631 90.9038C25.1493 88.0858 27.5379 85.8046 30.4244 84.3511C33.3109 82.8976 36.5644 82.3377 39.7701 82.7428C42.9758 83.1479 45.9882 84.4996 48.4234 86.6256C50.8585 88.7515 52.6059 91.5554 53.4428 94.6796C54.2796 97.8038 54.168 101.107 53.1221 104.167C52.0761 107.228 50.1434 109.907 47.5702 111.863V111.863Z" fill="#3F3D56"/>
<path d="M37.8298 166.273C41.5531 166.273 44.5713 163.251 44.5713 159.524C44.5713 155.797 41.5531 152.775 37.8298 152.775C34.1066 152.775 31.0884 155.797 31.0884 159.524C31.0884 163.251 34.1066 166.273 37.8298 166.273Z" fill="#2F2E41"/>
<path d="M32.568 155.885C33.6574 154.795 33.8782 153.247 33.0612 152.43C32.2441 151.612 30.6986 151.833 29.6092 152.923C28.5198 154.014 28.2991 155.561 29.1161 156.379C29.9332 157.197 31.4786 156.976 32.568 155.885Z" fill="#2F2E41"/>
<path d="M44.8563 153.742C45.3102 152.678 44.5296 151.325 43.1129 150.719C41.6961 150.113 40.1796 150.484 39.7257 151.548C39.2718 152.612 40.0523 153.965 41.4691 154.571C42.8859 155.177 44.4024 154.806 44.8563 153.742Z" fill="#2F2E41"/>
<path d="M45.8941 172.615L45.0998 171.363C44.7628 170.61 44.1411 170.02 43.371 169.725C42.6008 169.429 41.745 169.451 40.9909 169.785C40.2368 170.12 39.6459 170.74 39.3476 171.51C39.0494 172.28 39.0681 173.137 39.3997 173.893L39.6255 174.704L39.8826 175.624C40.9231 175.492 41.9499 175.268 42.9506 174.953C42.9536 174.953 42.9563 174.952 42.9584 174.949C43.6981 174.715 44.4202 174.428 45.1194 174.092C45.1232 174.088 45.127 174.088 45.131 174.084C45.2867 174.01 45.4386 173.932 45.5943 173.854C45.6197 173.843 45.6444 173.83 45.6683 173.815C45.7928 173.753 45.9175 173.686 46.0382 173.62C46.1628 173.554 46.2834 173.484 46.4002 173.41L45.8941 172.615Z" fill="#CACACA"/>
<path d="M38.0437 166.863C41.2035 166.863 43.7651 164.298 43.7651 161.135C43.7651 157.972 41.2035 155.407 38.0437 155.407C34.8838 155.407 32.3223 157.972 32.3223 161.135C32.3223 164.298 34.8838 166.863 38.0437 166.863Z" fill="#FFB6B6"/>
<path d="M46.3066 172.369C45.6755 171.318 44.8921 170.367 43.9821 169.547C43.3588 168.99 42.5521 168.682 41.7161 168.682H33.6565C33.192 168.682 32.7325 168.777 32.3063 168.961C31.8801 169.146 31.4962 169.416 31.1784 169.755C30.8605 170.094 30.6155 170.495 30.4585 170.932C30.3014 171.37 30.2356 171.835 30.2652 172.299C30.2828 172.561 30.3299 172.82 30.4055 173.071C30.463 173.253 30.5345 173.43 30.6196 173.601L31.0167 174.396C31.0479 174.408 31.0791 174.423 31.11 174.435C31.1178 174.439 31.1218 174.439 31.1256 174.443C31.2891 174.509 31.4528 174.575 31.6201 174.638C32.168 174.847 32.7269 175.027 33.2944 175.175C34.2079 175.421 35.1404 175.589 36.0821 175.678C36.6311 175.729 37.1802 175.756 37.733 175.756C38.2821 175.756 38.8193 175.729 39.3566 175.678C39.5319 175.663 39.707 175.643 39.8822 175.624C40.9228 175.492 41.9496 175.268 42.9503 174.953C42.9533 174.953 42.956 174.952 42.9581 174.949C43.6978 174.715 44.4199 174.428 45.1191 174.092C45.1229 174.088 45.1267 174.088 45.1307 174.084C45.2864 174.01 45.4383 173.932 45.594 173.854C45.6195 173.843 45.6442 173.83 45.668 173.815C45.7925 173.753 45.9172 173.687 46.0379 173.62C46.1625 173.554 46.2831 173.484 46.3999 173.41C46.5246 173.344 46.6414 173.269 46.7621 173.195C46.6142 172.903 46.4623 172.63 46.3066 172.369Z" fill="#CACACA"/>
<path d="M35.1165 169.726C34.3706 169.377 33.517 169.338 32.7422 169.617C31.9673 169.896 31.3344 170.471 30.9817 171.215L30.2651 172.299L29.9226 172.817L29.4009 173.605C29.5098 173.663 29.6149 173.722 29.7241 173.78L29.868 173.854C30.203 174.026 30.5416 174.189 30.8921 174.341C30.9309 174.361 30.9739 174.376 31.0167 174.396C31.0478 174.408 31.079 174.423 31.11 174.435C31.1178 174.439 31.1218 174.439 31.1256 174.443C31.2891 174.509 31.4528 174.575 31.6201 174.638C32.168 174.847 32.7269 175.027 33.2944 175.175C34.2079 175.421 35.1404 175.589 36.082 175.678L36.3546 174.754L36.6195 173.874C36.9685 173.124 37.0063 172.266 36.7245 171.489C36.4428 170.711 35.8644 170.078 35.1165 169.726Z" fill="#CACACA"/>
<path d="M32.0322 157.532C33.3397 158.434 34.8915 158.915 36.4793 158.908C35.9129 159.301 35.2681 159.567 34.5893 159.687C36.7005 160.14 38.8824 160.152 40.9986 159.723C41.469 159.647 41.9228 159.491 42.3403 159.261C42.5483 159.145 42.7296 158.986 42.8722 158.795C43.0149 158.604 43.1159 158.385 43.1685 158.153C43.3091 157.348 42.6831 156.618 42.0326 156.125C41.0366 155.383 39.8883 154.872 38.6706 154.628C37.4529 154.384 36.1964 154.415 34.9919 154.717C34.1894 154.879 33.4591 155.292 32.9067 155.897C32.6394 156.204 32.4781 156.59 32.4465 156.997C32.4149 157.403 32.5147 157.809 32.7313 158.155L32.0322 157.532Z" fill="#2F2E41"/>
<path d="M53.9845 152.869C53.162 150.503 51.8337 148.344 50.0924 146.545C48.351 144.745 46.2384 143.348 43.902 142.45C41.5656 141.551 39.0616 141.174 36.5646 141.344C34.0676 141.515 31.6378 142.228 29.4445 143.435C27.2513 144.642 25.3474 146.313 23.8658 148.332C22.3841 150.352 21.3603 152.67 20.8657 155.126C20.3711 157.582 20.4177 160.117 21.0022 162.553C21.5866 164.989 22.695 167.268 24.2498 169.231C24.4015 169.426 24.5652 169.621 24.7287 169.808C24.7381 169.822 24.7485 169.835 24.7599 169.847C25.1631 170.311 25.5921 170.753 26.0447 171.169C26.1614 171.278 26.2821 171.391 26.4069 171.496C26.6403 171.706 26.8818 171.905 27.1348 172.096C27.2321 172.174 27.3295 172.252 27.4308 172.326C27.824 172.626 28.2367 172.903 28.6572 173.172C28.6644 173.172 28.6713 173.175 28.6766 173.18C28.7973 173.254 28.9221 173.328 29.0466 173.398C29.1633 173.468 29.284 173.538 29.401 173.605C29.5099 173.663 29.615 173.722 29.7241 173.78L29.8681 173.854C30.203 174.026 30.5416 174.189 30.8922 174.341C30.931 174.361 30.974 174.376 31.0167 174.396C31.0479 174.408 31.0791 174.423 31.1101 174.435C31.1179 174.439 31.1219 174.439 31.1256 174.443C31.2891 174.509 31.4528 174.575 31.6201 174.638C32.168 174.847 32.727 175.027 33.2945 175.175C34.2079 175.421 35.1404 175.589 36.0821 175.678C36.6311 175.729 37.1802 175.756 37.733 175.756C38.2821 175.756 38.8193 175.729 39.3566 175.678C39.5319 175.663 39.707 175.643 39.8823 175.624C40.9229 175.492 41.9496 175.268 42.9503 174.953C42.9533 174.953 42.956 174.951 42.9581 174.949C43.6978 174.715 44.4199 174.428 45.1191 174.092C45.1229 174.088 45.1267 174.088 45.1307 174.084C45.2864 174.01 45.4383 173.932 45.594 173.854C45.6195 173.843 45.6442 173.83 45.668 173.815C45.7925 173.753 45.9172 173.686 46.038 173.62C46.1625 173.554 46.2831 173.484 46.3999 173.41C46.5246 173.343 46.6414 173.269 46.7621 173.195C46.8244 173.156 46.8868 173.117 46.949 173.078C47.0347 173.028 47.1125 172.977 47.1982 172.919C47.315 172.845 47.4319 172.763 47.5446 172.681C47.6965 172.576 47.8484 172.466 47.9963 172.353C48.0462 172.321 48.0943 172.286 48.1404 172.248C51.0318 170.048 53.1541 166.989 54.2038 163.508C55.2535 160.027 55.1767 156.303 53.9845 152.869L53.9845 152.869ZM47.572 171.496C47.4707 171.578 47.3655 171.656 47.2606 171.726C47.1553 171.804 47.0541 171.878 46.949 171.948C46.8594 172.01 46.7699 172.073 46.6766 172.131C46.6681 172.139 46.6589 172.145 46.6492 172.151C46.583 172.198 46.5129 172.24 46.4467 172.283C46.4 172.311 46.3534 172.342 46.3066 172.369C46.1703 172.455 46.034 172.537 45.8939 172.615C45.8199 172.661 45.742 172.704 45.668 172.747C45.6408 172.763 45.6135 172.778 45.5863 172.794C45.4655 172.86 45.3488 172.919 45.2319 172.981C45.2165 172.993 45.1969 172.997 45.1853 173.008C45.1781 173.008 45.1711 173.011 45.1657 173.016C45.0178 173.094 44.8659 173.168 44.7142 173.238C44.1296 173.52 43.5274 173.763 42.9114 173.967C42.8336 173.994 42.7519 174.026 42.6739 174.049C41.6809 174.364 40.66 174.584 39.6252 174.704C39.5085 174.719 39.3878 174.731 39.2671 174.743C38.761 174.79 38.2509 174.813 37.7331 174.813C37.2735 174.813 36.8102 174.793 36.3547 174.754C35.4024 174.675 34.4591 174.511 33.5359 174.263C32.8332 174.08 32.1448 173.846 31.4762 173.562C31.4411 173.546 31.4061 173.534 31.3711 173.519C31.3321 173.503 31.301 173.492 31.266 173.476C31.227 173.46 31.1958 173.445 31.1569 173.425C30.9038 173.316 30.6508 173.195 30.4055 173.071C30.3704 173.051 30.3354 173.036 30.3004 173.016L30.1641 172.946C30.0823 172.903 30.0006 172.86 29.9227 172.817C29.6618 172.677 29.4048 172.525 29.1557 172.369C29.0622 172.311 28.9611 172.248 28.8675 172.186L28.7974 172.139C28.5793 171.991 28.3614 171.843 28.1472 171.683C28.0031 171.574 27.8552 171.469 27.7151 171.356C27.4776 171.176 27.2478 170.985 27.0259 170.787C26.909 170.689 26.7923 170.58 26.6833 170.479C26.2449 170.074 25.8302 169.645 25.4413 169.192C25.3128 169.044 25.1843 168.896 25.0636 168.74C25.0364 168.709 25.013 168.678 24.9856 168.643C22.9783 166.108 21.7709 163.031 21.5172 159.806C21.2636 156.581 21.9752 153.354 23.5614 150.535C25.1476 147.717 27.5364 145.435 30.4232 143.981C33.31 142.527 36.5639 141.967 39.77 142.372C42.9762 142.777 45.9891 144.129 48.4247 146.255C50.8602 148.381 52.608 151.186 53.445 154.31C54.2821 157.435 54.1705 160.738 53.1245 163.799C52.0785 166.86 50.1455 169.539 47.5721 171.496H47.572Z" fill="#3F3D56"/>
<path d="M66.5195 68.7124C60.5282 63.6514 53.1966 60.4428 45.4168 59.477C37.6371 58.5112 29.7447 59.8299 22.7 63.2726C15.6553 66.7153 9.76205 72.1336 5.73735 78.8681C1.71264 85.6026 -0.269978 93.363 0.0307517 101.205C0.331482 109.047 2.90259 116.632 7.43121 123.038C11.9598 129.444 18.2507 134.394 25.5383 137.286C32.826 140.178 40.7961 140.887 48.479 139.327C56.1618 137.767 63.2261 134.005 68.8122 128.499L118.416 170.399C119.171 171.035 120.147 171.344 121.13 171.26C122.113 171.177 123.022 170.706 123.659 169.952C124.296 169.198 124.608 168.222 124.528 167.237C124.447 166.253 123.979 165.341 123.228 164.702L123.222 164.697L73.6186 122.797C79.381 114.517 81.8472 104.383 80.534 94.3779C79.2208 84.3733 74.2228 75.2202 66.5195 68.7124ZM63.3217 118.762C59.4574 123.347 54.3218 126.681 48.5643 128.344C42.8069 130.007 36.6862 129.923 30.9763 128.103C25.2663 126.284 20.2236 122.81 16.4858 118.122C12.7479 113.433 10.4829 107.74 9.97703 101.763C9.47119 95.7856 10.7473 89.7924 13.6439 84.5411C16.5405 79.2898 20.9276 75.0164 26.2504 72.2612C31.5732 69.5059 37.5926 68.3926 43.5474 69.0621C49.5022 69.7315 55.125 72.1536 59.7047 76.0221C65.8459 81.2096 69.6771 88.6268 70.3554 96.6421C71.0337 104.657 68.5036 112.614 63.3217 118.762Z" fill="#3F3D56"/>
<path opacity="0.3" d="M20.6277 122.383C14.8154 117.473 11.0603 110.554 10.1079 103.001C9.15542 95.4472 11.0754 87.8115 15.4865 81.6096C14.9072 82.1936 14.3472 82.8052 13.8064 83.4445C11.2406 86.4886 9.2988 90.0088 8.09196 93.8041C6.88511 97.5994 6.43683 101.596 6.7727 105.564C7.10857 109.533 8.22202 113.397 10.0495 116.935C11.8769 120.473 14.3826 123.616 17.4234 126.184C20.4642 128.753 23.9807 130.697 27.7719 131.905C31.5632 133.113 35.555 133.562 39.5195 133.226C43.484 132.889 47.3435 131.775 50.8777 129.945C54.4119 128.116 57.5516 125.607 60.1174 122.563C60.6569 121.923 61.165 121.268 61.6416 120.597C56.2767 125.993 49.0808 129.172 41.4828 129.503C33.8848 129.834 26.4403 127.292 20.6277 122.383Z" fill="black"/>
<path d="M166.52 171.966C166.908 171.492 167.187 170.939 167.338 170.346C167.489 169.753 167.508 169.134 167.394 168.532C167.28 167.931 167.036 167.362 166.678 166.865C166.321 166.368 165.859 165.956 165.325 165.657L156.284 128.61L149.688 130.718L159.451 167.512C159.009 168.443 158.924 169.504 159.211 170.494C159.499 171.483 160.139 172.333 161.01 172.882C161.881 173.431 162.923 173.641 163.939 173.472C164.955 173.303 165.873 172.767 166.52 171.966H166.52Z" fill="#FFB6B6"/>
<path d="M161.847 148.268L157.027 152.431L150.283 158.251L147.305 142.995L146.993 141.409L146.748 140.15L153.581 128.235L159.277 128.562L159.667 128.585L159.675 128.671L159.764 129.47L160.932 139.986L160.959 140.24L161.847 148.268Z" fill="#3F3D56"/>
<path d="M130.341 251.821L125.568 251.82L123.297 233.389L130.342 233.389L130.341 251.821Z" fill="#FFB6B6"/>
<path d="M131.558 256.453L116.167 256.452V256.257C116.167 254.667 116.798 253.141 117.922 252.017C119.045 250.892 120.569 250.26 122.158 250.26H122.158L131.559 250.261L131.558 256.453Z" fill="#2F2E41"/>
<path d="M180.178 252.21L175.405 252.21L173.134 233.779L180.179 233.779L180.178 252.21Z" fill="#FFB6B6"/>
<path d="M181.396 256.842L166.004 256.842V256.647C166.005 255.056 166.636 253.531 167.759 252.406C168.883 251.282 170.406 250.65 171.995 250.65H171.996L181.396 250.65L181.396 256.842Z" fill="#2F2E41"/>
<path d="M183.993 244.873L171.145 246.822L152.452 183.492L132.599 247.212L118.193 245.263L136.882 171.207V165.36L139.413 156.59L139.148 154.216L137.306 137.616L136.508 130.417L136.456 129.952C136.413 129.562 136.516 129.169 136.746 128.851C136.976 128.533 137.316 128.312 137.699 128.23L143.695 126.968H153.495L159.277 128.562L159.675 128.671L159.854 128.722L159.764 129.47L158.409 140.843L158.335 141.467L157.027 152.431L156.739 154.836C168.03 163.021 168.419 171.207 168.419 171.207L183.993 244.873Z" fill="#2F2E41"/>
<path d="M147.411 122.036C152.692 122.036 156.974 117.75 156.974 112.463C156.974 107.176 152.692 102.89 147.411 102.89C142.13 102.89 137.848 107.176 137.848 112.463C137.848 117.75 142.13 122.036 147.411 122.036Z" fill="#FFB6B6"/>
<path d="M157.455 152.636L138.538 155.113L138.891 157.818L157.809 155.342L157.455 152.636Z" fill="#3F3D56"/>
<path d="M113.163 155.929C113.344 156.046 113.515 156.177 113.676 156.321L132.386 151.546L133.663 147.027L140.727 148.064L139.244 156.284C139.124 156.948 138.792 157.555 138.298 158.014C137.805 158.474 137.175 158.76 136.505 158.831L114.658 161.134C114.302 161.884 113.726 162.509 113.007 162.923C112.288 163.338 111.459 163.524 110.632 163.456C109.805 163.388 109.018 163.07 108.376 162.544C107.734 162.017 107.267 161.307 107.038 160.509C106.809 159.71 106.828 158.861 107.092 158.073C107.357 157.286 107.855 156.598 108.52 156.101C109.185 155.603 109.985 155.321 110.815 155.29C111.644 155.259 112.463 155.482 113.163 155.929Z" fill="#FFB6B6"/>
<path d="M141.943 130.67L138.634 128.137C137.739 127.797 136.513 128.763 136.298 129.696L131.625 148.795L141.359 155.811L142.722 153.667L141.943 130.67Z" fill="#3F3D56"/>
<g opacity="0.2">
<path d="M160.932 139.986C160.106 140.314 159.264 140.6 158.409 140.843C158.137 140.925 157.856 141.003 157.58 141.077C155.758 141.583 153.885 141.887 151.996 141.982C151.183 142.016 150.369 141.994 149.559 141.915C148.69 141.829 147.83 141.659 146.993 141.409C146.966 141.401 146.935 141.393 146.908 141.385C145.167 140.89 143.571 139.983 142.255 138.739C141.961 138.452 141.686 138.146 141.433 137.823C140.706 136.931 140.173 135.898 139.867 134.789C139.561 133.679 139.49 132.518 139.658 131.38C139.69 131.173 139.735 130.969 139.79 130.768C139.937 130.219 140.131 129.685 140.37 129.17C140.475 128.928 140.592 128.69 140.717 128.457L145.116 126.968H153.495L159.277 128.562L159.667 128.585L159.674 128.671L159.854 128.722L159.764 129.47L160.932 139.986Z" fill="black"/>
</g>
<path d="M140.083 104.538C138.295 104.318 136.332 104.473 134.938 105.616C133.544 106.759 133.095 109.135 134.414 110.363C135.583 111.45 137.41 111.195 138.975 111.504C140.323 111.806 141.531 112.553 142.405 113.624C143.279 114.695 143.769 116.028 143.796 117.411C143.773 121.377 139.971 124.38 139.288 128.286C138.822 130.952 139.945 133.758 141.887 135.641C143.829 137.524 146.498 138.542 149.188 138.818C151.877 139.093 154.597 138.672 157.211 137.98C159.836 137.286 162.42 136.3 164.622 134.711C166.824 133.122 168.63 130.881 169.337 128.257C170.044 125.633 169.536 122.625 167.714 120.61C165.627 118.303 162.156 117.51 160.351 114.976C158.328 112.135 159.077 108.09 157.439 105.01C156.346 102.954 154.276 101.552 152.069 100.813C149.863 100.074 147.507 99.9285 145.181 99.8569C143.958 99.8193 142.699 99.8068 141.56 100.253C140.421 100.699 139.42 101.716 139.361 102.939C139.302 104.162 140.083 104.538 140.083 104.538Z" fill="#2F2E41"/>
<path d="M229.611 257H81.2673C81.164 257 81.065 256.959 80.992 256.886C80.919 256.813 80.8779 256.714 80.8779 256.61C80.8779 256.507 80.919 256.408 80.992 256.335C81.065 256.262 81.164 256.22 81.2673 256.22H229.611C229.714 256.22 229.813 256.262 229.886 256.335C229.959 256.408 230 256.507 230 256.61C230 256.714 229.959 256.813 229.886 256.886C229.813 256.959 229.714 257 229.611 257Z" fill="#CACACA"/>
</g>
<defs>
<clipPath id="clip0_2_990">
<rect width="230" height="257" fill="white"/>
</clipPath>
</defs>
</svg>
