<svg width="399" height="438" viewBox="0 0 399 438" fill="none" xmlns="http://www.w3.org/2000/svg">
<g clip-path="url(#clip0_2_873)">
<path d="M277.062 88.8606C249.403 84.4474 217.906 82.0924 185.104 82.0924C155.084 82.0924 126.161 84.0618 100.276 87.7751C100.282 87.3776 100.288 86.9802 100.306 86.5828C100.992 63.5138 110.676 41.6283 127.288 25.6039C143.9 9.57956 166.123 0.687608 189.205 0.828602C212.288 0.969595 234.4 10.1323 250.815 26.3585C267.23 42.5846 276.646 64.5868 277.05 87.6624C277.056 88.0658 277.062 88.4632 277.062 88.8606Z" fill="#32C0C6"/>
<g opacity="0.1">
<path d="M200.262 0.795632C187.985 -0.862339 175.497 0.0773507 163.607 3.55379C151.716 7.03024 140.689 12.9659 131.24 20.976C121.791 28.9861 114.131 38.8919 108.756 50.0515C103.38 61.2111 100.411 73.3753 100.038 85.7559C100.021 86.1534 100.015 86.5508 100.009 86.9482C107.699 85.845 115.662 84.8997 123.838 84.1103C124.838 63.4847 133.028 43.8601 146.988 28.6416C160.948 13.4231 179.796 3.5713 200.262 0.795632Z" fill="white"/>
</g>
<path d="M315.732 95.872C303 92.4211 290.086 89.6803 277.05 87.6624C255.684 84.352 234.143 82.2822 212.537 81.4637C203.537 81.0959 194.371 80.9061 185.104 80.9061C177.759 80.9061 170.473 81.0247 163.289 81.262C142.213 81.8846 121.187 83.6608 100.306 86.5828C84.8484 88.7109 69.541 91.8135 54.4749 95.872C19.3468 105.582 0 118.597 0 132.513C0 146.429 19.3468 159.443 54.4749 169.153C79.1792 175.987 109.638 180.643 142.827 182.779C156.525 183.668 170.687 184.119 185.104 184.119C199.568 184.119 213.777 183.663 227.517 182.773C257.721 180.821 285.665 176.782 309.052 170.909C309.176 170.874 309.295 170.844 309.42 170.814C310.998 170.423 312.552 170.013 314.089 169.604C314.64 169.45 315.186 169.302 315.732 169.153C315.763 169.141 315.795 169.131 315.827 169.124C316.349 168.981 316.865 168.833 317.381 168.691C318.414 168.394 319.434 168.103 320.437 167.801C320.484 167.789 320.526 167.777 320.567 167.765C321.439 167.504 322.294 167.243 323.142 166.982C323.836 166.763 324.525 166.549 325.207 166.33C325.705 166.17 326.198 166.01 326.684 165.849C327.04 165.731 327.39 165.618 327.734 165.499C328.203 165.345 328.672 165.185 329.134 165.025C329.33 164.96 329.526 164.894 329.716 164.823C330.161 164.675 330.594 164.521 331.027 164.366C331.496 164.2 331.964 164.028 332.427 163.862C332.813 163.726 333.198 163.583 333.578 163.441C333.898 163.316 334.213 163.198 334.533 163.079C335.405 162.753 336.26 162.415 337.102 162.083C337.523 161.911 337.945 161.745 338.36 161.573C338.769 161.406 339.185 161.234 339.588 161.062C340.252 160.784 340.905 160.505 341.546 160.226C341.854 160.084 342.169 159.947 342.471 159.817C342.703 159.71 342.928 159.609 343.16 159.502C343.326 159.431 343.492 159.354 343.652 159.277C344.251 159.004 344.844 158.725 345.426 158.447C347.657 157.379 349.739 156.287 351.673 155.172C363.806 148.226 370.207 140.521 370.207 132.513C370.207 118.597 350.86 105.582 315.732 95.872ZM315.412 168.014C290.678 174.854 260.136 179.51 226.859 181.628C213.326 182.488 199.337 182.933 185.104 182.933C170.918 182.933 156.976 182.494 143.485 181.634C110.154 179.522 79.5648 174.866 54.7953 168.014C20.2249 158.452 1.18656 145.847 1.18656 132.513C1.18849 131.334 1.336 130.161 1.62573 129.019C4.65123 116.989 23.2625 105.731 54.7953 97.0109C69.7475 92.984 84.9377 89.8993 100.276 87.7751C121.283 84.8366 142.436 83.0544 163.639 82.4365C170.711 82.2051 177.866 82.0905 185.104 82.0924C194.246 82.0924 203.288 82.2763 212.175 82.6322C233.907 83.4435 255.573 85.5232 277.062 88.8606C289.986 90.8696 302.788 93.5905 315.412 97.0109C346.939 105.731 365.544 116.983 368.576 129.007C368.87 130.152 369.02 131.33 369.021 132.513C369.021 145.847 349.982 158.452 315.412 168.014Z" fill="#3F3D56"/>
<path d="M369.869 133.052C369.869 140.977 363.337 148.475 351.673 155.172C349.733 156.287 347.645 157.379 345.426 158.446C344.844 158.725 344.251 159.004 343.652 159.277C343.492 159.354 343.326 159.431 343.16 159.502C342.928 159.609 342.703 159.71 342.471 159.817C342.169 159.947 341.854 160.084 341.546 160.226C340.905 160.505 340.252 160.784 339.588 161.062C339.185 161.234 338.769 161.406 338.36 161.573C337.945 161.745 337.523 161.911 337.102 162.083C336.26 162.415 335.405 162.753 334.533 163.079C334.213 163.198 333.898 163.316 333.578 163.441C333.198 163.583 332.813 163.726 332.427 163.862C331.964 164.028 331.496 164.2 331.027 164.366C330.594 164.521 330.161 164.675 329.716 164.823C329.526 164.894 329.33 164.96 329.134 165.025C328.672 165.185 328.203 165.345 327.734 165.499C327.39 165.618 327.04 165.731 326.684 165.849C326.198 166.009 325.705 166.17 325.207 166.33C324.525 166.549 323.836 166.763 323.142 166.982C322.294 167.243 321.439 167.504 320.567 167.765C320.526 167.777 320.484 167.789 320.437 167.801C319.434 168.103 318.414 168.394 317.381 168.691C316.865 168.833 316.349 168.981 315.827 169.124C315.795 169.131 315.763 169.141 315.732 169.153C315.186 169.302 314.64 169.45 314.089 169.604C312.558 170.007 310.998 170.417 309.42 170.814C309.295 170.844 309.176 170.874 309.052 170.909C286.299 176.592 258.386 180.732 227.494 182.731C213.961 183.603 199.852 184.066 185.359 184.066C170.735 184.066 156.507 183.597 142.868 182.707C61.446 177.399 0.848511 157.183 0.848511 133.052C0.854921 131.584 1.07877 130.125 1.51276 128.722C1.5484 128.823 1.58402 128.918 1.62574 129.019C10.0916 151.251 70.1734 169.219 148.13 173.602C160.073 174.278 172.443 174.628 185.104 174.628C197.818 174.628 210.235 174.272 222.225 173.596C300.117 169.195 360.139 151.222 368.576 129.007C368.718 128.651 368.843 128.295 368.949 127.939C369.551 129.577 369.862 131.308 369.869 133.052Z" fill="#3F3D56"/>
<path d="M54.3857 126.667C44.5119 126.667 34.0179 124.544 34.0179 120.607C34.0179 116.671 44.5119 114.547 54.3857 114.547C64.2595 114.547 74.7534 116.671 74.7534 120.607C74.7534 124.544 64.2595 126.667 54.3857 126.667ZM54.3857 115.733C43.0819 115.733 35.2045 118.302 35.2045 120.607C35.2045 122.912 43.0819 125.481 54.3857 125.481C65.6894 125.481 73.5669 122.912 73.5669 120.607C73.5669 118.302 65.6894 115.733 54.3857 115.733Z" fill="#3F3D56"/>
<path d="M96.5085 154.547C86.6348 154.547 76.1409 152.423 76.1409 148.487C76.1409 144.55 86.6348 142.426 96.5085 142.426C106.382 142.426 116.876 144.55 116.876 148.487C116.876 152.423 106.382 154.547 96.5085 154.547ZM96.5085 143.612C85.2048 143.612 77.3274 146.181 77.3274 148.487C77.3274 150.792 85.2048 153.361 96.5085 153.361C107.812 153.361 115.69 150.792 115.69 148.487C115.69 146.181 107.812 143.612 96.5085 143.612Z" fill="#3F3D56"/>
<path d="M315.429 126.667C305.555 126.667 295.061 124.544 295.061 120.607C295.061 116.671 305.555 114.547 315.429 114.547C325.303 114.547 335.797 116.671 335.797 120.607C335.797 124.544 325.303 126.667 315.429 126.667ZM315.429 115.733C304.125 115.733 296.248 118.302 296.248 120.607C296.248 122.912 304.125 125.481 315.429 125.481C326.733 125.481 334.61 122.912 334.61 120.607C334.61 118.302 326.733 115.733 315.429 115.733Z" fill="#3F3D56"/>
<path d="M273.306 154.547C263.432 154.547 252.938 152.423 252.938 148.487C252.938 144.55 263.432 142.426 273.306 142.426C283.18 142.426 293.674 144.55 293.674 148.487C293.674 152.423 283.18 154.547 273.306 154.547ZM273.306 143.612C262.002 143.612 254.125 146.181 254.125 148.487C254.125 150.792 262.002 153.361 273.306 153.361C284.61 153.361 292.487 150.792 292.487 148.487C292.487 146.181 284.61 143.612 273.306 143.612Z" fill="#3F3D56"/>
<path d="M184.907 167.597C175.034 167.597 164.54 165.473 164.54 161.536C164.54 157.6 175.034 155.476 184.907 155.476C194.781 155.476 205.275 157.6 205.275 161.536C205.275 165.473 194.781 167.597 184.907 167.597ZM184.907 156.662C173.604 156.662 165.726 159.231 165.726 161.536C165.726 163.842 173.604 166.41 184.907 166.41C196.211 166.41 204.089 163.842 204.089 161.536C204.089 159.231 196.211 156.662 184.907 156.662Z" fill="#3F3D56"/>
<path d="M199.922 292.269C213.688 292.269 224.848 281.112 224.848 267.348C224.848 253.585 213.688 242.428 199.922 242.428C186.157 242.428 174.997 253.585 174.997 267.348C174.997 281.112 186.157 292.269 199.922 292.269Z" fill="#2F2E41"/>
<path d="M190.444 283.722L178.313 289.795L181.704 296.565L193.835 290.491L190.444 283.722Z" fill="#2F2E41"/>
<path d="M183.303 295.878C184.023 294.787 182.247 292.348 179.338 290.43C176.428 288.512 173.487 287.841 172.767 288.932C172.048 290.023 173.823 292.462 176.733 294.38C179.642 296.298 182.584 296.969 183.303 295.878Z" fill="#2F2E41"/>
<path d="M209.401 283.722L206.01 290.491L218.141 296.565L221.531 289.795L209.401 283.722Z" fill="#2F2E41"/>
<path d="M223.112 294.38C226.022 292.462 227.797 290.023 227.078 288.932C226.358 287.841 223.416 288.512 220.507 290.43C217.597 292.348 215.822 294.787 216.541 295.878C217.261 296.969 220.203 296.298 223.112 294.38Z" fill="#2F2E41"/>
<path d="M198.178 269.77C202.882 269.77 206.696 265.957 206.696 261.253C206.696 256.549 202.882 252.735 198.178 252.735C193.473 252.735 189.659 256.549 189.659 261.253C189.659 265.957 193.473 269.77 198.178 269.77Z" fill="white"/>
<path d="M200.25 259.62C201.354 258.516 201.348 256.719 200.236 255.607C199.123 254.495 197.327 254.489 196.222 255.593C195.118 256.697 195.124 258.494 196.237 259.606C197.349 260.718 199.145 260.724 200.25 259.62Z" fill="#3F3D56"/>
<path d="M219.585 240.237C219.96 231.011 212.007 223.197 201.822 222.783C191.636 222.369 183.076 229.513 182.701 238.739C182.326 247.965 189.406 250.062 199.591 250.475C209.777 250.889 219.21 249.463 219.585 240.237Z" fill="#32C0C6"/>
<path d="M233.952 280.398C235.592 278.991 233.286 273.617 228.803 268.395C224.32 263.174 219.356 260.082 217.717 261.489C216.077 262.896 218.383 268.27 222.866 273.491C227.349 278.713 232.313 281.805 233.952 280.398Z" fill="#2F2E41"/>
<path d="M177.049 273.491C181.532 268.27 183.837 262.896 182.198 261.489C180.558 260.082 175.595 263.174 171.112 268.395C166.628 273.617 164.323 278.991 165.962 280.398C167.602 281.805 172.565 278.713 177.049 273.491Z" fill="#2F2E41"/>
<path d="M206.768 277.169C207.038 278.651 206.708 280.179 205.851 281.417C204.994 282.656 203.68 283.503 202.198 283.773C200.716 284.042 199.188 283.713 197.949 282.856C196.711 281.999 195.863 280.685 195.594 279.203L195.592 279.192C195.033 276.107 197.419 275.015 200.505 274.456C203.592 273.897 206.209 274.084 206.768 277.169Z" fill="white"/>
<path d="M157.813 293.857C157.498 293.857 157.196 293.732 156.974 293.51C156.751 293.287 156.626 292.986 156.626 292.671V222.676C156.626 222.361 156.751 222.06 156.974 221.837C157.196 221.615 157.498 221.49 157.813 221.49C158.127 221.49 158.429 221.615 158.652 221.837C158.874 222.06 158.999 222.361 158.999 222.676V292.671C158.999 292.986 158.874 293.287 158.652 293.51C158.429 293.732 158.127 293.857 157.813 293.857Z" fill="#CCCCCC"/>
<path d="M140.014 356.734C139.7 356.734 139.398 356.609 139.175 356.387C138.953 356.164 138.828 355.863 138.828 355.548V304.535C138.828 304.22 138.953 303.918 139.175 303.696C139.398 303.473 139.7 303.348 140.014 303.348C140.329 303.348 140.631 303.473 140.853 303.696C141.076 303.918 141.201 304.22 141.201 304.535V355.548C141.201 355.863 141.076 356.164 140.853 356.387C140.631 356.609 140.329 356.734 140.014 356.734Z" fill="#CCCCCC"/>
<path d="M185.697 314.619C185.382 314.619 185.08 314.494 184.858 314.271C184.635 314.049 184.51 313.747 184.51 313.432V243.437C184.51 243.123 184.635 242.821 184.858 242.598C185.08 242.376 185.382 242.251 185.697 242.251C186.012 242.251 186.313 242.376 186.536 242.598C186.758 242.821 186.883 243.123 186.883 243.437V313.432C186.883 313.747 186.758 314.049 186.536 314.271C186.313 314.494 186.012 314.619 185.697 314.619Z" fill="#CCCCCC"/>
<path d="M168.492 365.039C168.177 365.039 167.875 364.914 167.653 364.691C167.43 364.469 167.305 364.167 167.305 363.853V335.38C167.305 335.065 167.43 334.764 167.653 334.541C167.875 334.319 168.177 334.194 168.492 334.194C168.806 334.194 169.108 334.319 169.331 334.541C169.553 334.764 169.678 335.065 169.678 335.38V363.853C169.678 364.167 169.553 364.469 169.331 364.691C169.108 364.914 168.806 365.039 168.492 365.039Z" fill="#CCCCCC"/>
<path d="M192.816 219.117C192.502 219.117 192.2 218.992 191.977 218.769C191.755 218.547 191.63 218.245 191.63 217.93V189.458C191.63 189.143 191.755 188.841 191.977 188.619C192.2 188.397 192.502 188.272 192.816 188.272C193.131 188.272 193.433 188.397 193.655 188.619C193.878 188.841 194.003 189.143 194.003 189.458V217.93C194.003 218.245 193.878 218.547 193.655 218.769C193.433 218.992 193.131 219.117 192.816 219.117Z" fill="#CCCCCC"/>
<path d="M133.488 231.574C133.174 231.574 132.872 231.449 132.649 231.226C132.427 231.004 132.302 230.702 132.302 230.387V201.915C132.302 201.6 132.427 201.298 132.649 201.076C132.872 200.853 133.174 200.728 133.488 200.728C133.803 200.728 134.105 200.853 134.327 201.076C134.55 201.298 134.675 201.6 134.675 201.915V230.387C134.675 230.702 134.55 231.004 134.327 231.226C134.105 231.449 133.803 231.574 133.488 231.574Z" fill="#CCCCCC"/>
<path d="M236.719 234.54C236.404 234.539 236.103 234.414 235.88 234.192C235.658 233.97 235.532 233.668 235.532 233.353V204.881C235.532 204.566 235.657 204.264 235.88 204.042C236.103 203.819 236.404 203.694 236.719 203.694C237.034 203.694 237.336 203.819 237.558 204.042C237.781 204.264 237.906 204.566 237.906 204.881V233.353C237.906 233.668 237.781 233.97 237.558 234.192C237.336 234.414 237.034 234.539 236.719 234.54Z" fill="#CCCCCC"/>
<path d="M234.346 323.516C234.031 323.516 233.729 323.391 233.507 323.169C233.284 322.946 233.159 322.645 233.159 322.33V287.926C233.159 287.611 233.284 287.309 233.507 287.087C233.729 286.864 234.031 286.739 234.346 286.739C234.661 286.739 234.962 286.864 235.185 287.087C235.407 287.309 235.532 287.611 235.532 287.926V322.33C235.532 322.645 235.407 322.946 235.185 323.169C234.962 323.391 234.661 323.516 234.346 323.516Z" fill="#CCCCCC"/>
<path d="M210.615 353.769C210.3 353.769 209.998 353.644 209.776 353.421C209.553 353.199 209.428 352.897 209.428 352.582V301.569C209.428 301.254 209.553 300.952 209.776 300.73C209.998 300.507 210.3 300.382 210.615 300.382C210.929 300.382 211.231 300.507 211.454 300.73C211.676 300.952 211.801 301.254 211.801 301.569V352.582C211.801 352.897 211.676 353.199 211.454 353.421C211.231 353.644 210.929 353.769 210.615 353.769Z" fill="#CCCCCC"/>
<path d="M215.361 266.571C215.046 266.571 214.744 266.446 214.522 266.224C214.299 266.001 214.174 265.699 214.174 265.385V195.39C214.174 195.075 214.299 194.773 214.522 194.551C214.744 194.328 215.046 194.203 215.361 194.203C215.676 194.203 215.977 194.328 216.2 194.551C216.422 194.773 216.547 195.075 216.547 195.39V265.385C216.547 265.699 216.422 266.001 216.2 266.224C215.977 266.446 215.676 266.571 215.361 266.571Z" fill="#CCCCCC"/>
<path d="M360.829 415.517C362.528 414.095 360.233 408.558 355.703 403.149C351.174 397.74 346.125 394.508 344.427 395.929C342.728 397.351 345.023 402.888 349.553 408.297C354.082 413.706 359.131 416.938 360.829 415.517Z" fill="#2F2E41"/>
<path d="M349.691 409.366C354.154 395.981 346.919 381.513 333.531 377.052C320.144 372.59 305.674 379.824 301.212 393.209C296.749 406.594 303.984 421.061 317.371 425.523C330.759 429.985 345.229 422.751 349.691 409.366Z" fill="#2F2E41"/>
<path d="M336.266 421.336H328.504V435.242H336.266V421.336Z" fill="#2F2E41"/>
<path d="M320.742 421.336H312.979V435.242H320.742V421.336Z" fill="#2F2E41"/>
<path d="M329.798 437.829C333.37 437.829 336.266 436.743 336.266 435.403C336.266 434.064 333.37 432.978 329.798 432.978C326.225 432.978 323.329 434.064 323.329 435.403C323.329 436.743 326.225 437.829 329.798 437.829Z" fill="#2F2E41"/>
<path d="M314.273 437.505C317.845 437.505 320.742 436.419 320.742 435.08C320.742 433.74 317.845 432.655 314.273 432.655C310.7 432.655 307.804 433.74 307.804 435.08C307.804 436.419 310.7 437.505 314.273 437.505Z" fill="#2F2E41"/>
<path d="M317.429 369.174C319.71 359.988 329.781 354.582 339.923 357.099C350.064 359.617 356.436 369.106 354.155 378.292C351.873 387.479 344.304 387.508 334.162 384.991C324.021 382.473 315.147 378.361 317.429 369.174Z" fill="#CCCCCC"/>
<path d="M308.216 394.907C309.165 392.906 304.766 388.833 298.391 385.81C292.016 382.787 286.079 381.959 285.129 383.96C284.18 385.961 288.579 390.033 294.954 393.056C301.329 396.08 307.266 396.908 308.216 394.907Z" fill="#2F2E41"/>
<path d="M321.631 404.414C326.336 404.414 330.15 400.601 330.15 395.897C330.15 391.193 326.336 387.379 321.631 387.379C316.927 387.379 313.113 391.193 313.113 395.897C313.113 400.601 316.927 404.414 321.631 404.414Z" fill="white"/>
<path d="M318.13 395.683C319.699 395.683 320.97 394.412 320.97 392.844C320.97 391.276 319.699 390.005 318.13 390.005C316.562 390.005 315.291 391.276 315.291 392.844C315.291 394.412 316.562 395.683 318.13 395.683Z" fill="#3F3D56"/>
<path d="M321.558 417.239C323.524 417.239 325.118 415.645 325.118 413.68C325.118 411.714 323.524 410.121 321.558 410.121C319.592 410.121 317.999 411.714 317.999 413.68C317.999 415.645 319.592 417.239 321.558 417.239Z" fill="white"/>
<path d="M398.407 438H258.392C258.235 438 258.084 437.937 257.973 437.826C257.862 437.715 257.799 437.564 257.799 437.407C257.799 437.249 257.862 437.099 257.973 436.987C258.084 436.876 258.235 436.814 258.392 436.814H398.407C398.564 436.814 398.715 436.876 398.826 436.987C398.938 437.099 399 437.249 399 437.407C399 437.564 398.938 437.715 398.826 437.826C398.715 437.937 398.564 438 398.407 438Z" fill="#3F3D56"/>
</g>
<defs>
<clipPath id="clip0_2_873">
<rect width="399" height="438" fill="white"/>
</clipPath>
</defs>
</svg>
