<svg xmlns="http://www.w3.org/2000/svg" width="230" height="257" fill="none"><g clip-path="url(#a)"><path fill="#E6E6E6" d="M219.18 242.238a8.842 8.842 0 0 1-8.545-1.507c-2.993-2.515-3.932-6.658-4.695-10.494l-2.258-11.347 4.728 3.259c3.4 2.344 6.877 4.763 9.231 8.158 2.355 3.395 3.382 8.029 1.491 11.702"/><path fill="#F2F2F2" d="M218.776 255.976c.478-3.49.97-7.024.635-10.551-.298-3.132-1.253-6.191-3.196-8.7a14.461 14.461 0 0 0-3.71-3.365c-.371-.234-.712.354-.343.587a13.765 13.765 0 0 1 5.437 6.567c1.183 3.014 1.373 6.299 1.168 9.5-.124 1.936-.385 3.859-.648 5.78a.35.35 0 0 0 .237.419.34.34 0 0 0 .418-.238l.002.001Z"/><path fill="#fff" d="M201.64 198.017H3.835V0H201.64v198.017Z"/><path fill="#E5E5E5" d="M201.64 198.017H3.835V0H201.64v198.017ZM6.758 195.091h191.959V2.926H6.758V195.09Z"/><path fill="#E5E5E5" d="M166.599 30.98H80.941v2.671h85.658V30.98ZM166.599 37.925H80.941v2.67h85.658v-2.67ZM166.599 44.87H80.941v2.67h85.658v-2.67ZM166.599 90.615H80.941v2.671h85.658v-2.671ZM166.599 97.56H80.941v2.671h85.658V97.56ZM166.599 104.505H80.941v2.671h85.658v-2.671ZM166.599 150.25H80.941v2.671h85.658v-2.671ZM166.599 157.195H80.941v2.671h85.658v-2.671ZM166.599 164.14H80.941v2.671h85.658v-2.671Z"/><path fill="#3F3D56" d="M46.65 52.262a28.597 28.597 0 0 0-4.565-1.923l-.2-2.223-8.142-.878-1.035 2.841-2.922 1.098c-.105.04-.204.091-.297.154h-.003a1.449 1.449 0 0 0-.596 1.546l.155.634c.222.133.45.26.68.38l.144.075c.334.173.674.337 1.023.488.07.031.148.062.219.093l.015.006c.164.068.328.133.495.195.548.21 1.106.39 1.674.538a17.2 17.2 0 0 0 6.06.504 17.129 17.129 0 0 0 3.595-.727c.003 0 .006-.003.01-.003.737-.235 1.459-.521 2.158-.856.003-.003.01-.003.012-.006.158-.075.31-.155.464-.232l.074-.037c.123-.065.247-.13.37-.198.31-.17.612-.35.912-.541a8.89 8.89 0 0 0 .596-.399 13.361 13.361 0 0 0-.896-.529Z"/><path fill="#3F3D56" d="m31.37 53.632-.51-2.304h-1.33a.317.317 0 0 0-.04.003h-.004c-.478.04-.939.2-1.34.464a2.968 2.968 0 0 0-.717.643c.396.3.806.578 1.23.844l.018.01c.12.074.244.148.368.22.222.132.45.259.679.38l.145.074c.334.173.674.337 1.023.488.07.031.148.062.219.093l.015.006c.164.068.328.133.494.195l-.25-1.116Z"/><path fill="#FFB8B8" d="M37.494 45.832a5.867 5.867 0 0 0 5.863-5.87 5.867 5.867 0 0 0-5.863-5.87 5.867 5.867 0 0 0-5.864 5.87 5.867 5.867 0 0 0 5.864 5.87Z"/><path fill="#2F2E41" d="M33.557 37.103c.607.72 1.634.922 2.582 1.005 2.215.123 4.437-.059 6.603-.54.135 1.303-.231 2.707.535 3.778.36-1.297.568-2.63.622-3.976a3.81 3.81 0 0 0-.22-1.703 1.566 1.566 0 0 0-1.332-.983c.436-.332.948-.55 1.49-.638l-1.862-.937.478-.49-3.371-.207.976-.621a21.146 21.146 0 0 0-4.435-.14c-.691 0-1.37.189-1.962.546-.556.398-.878 1.19-.532 1.775a2.574 2.574 0 0 0-1.962 1.558 4.165 4.165 0 0 0-.15 2c.128 1.074.377 2.129.743 3.145l1.797-3.572Z"/><path fill="#3F3D56" d="M53.982 33.599A17.228 17.228 0 0 0 43.9 23.18a17.19 17.19 0 0 0-20.035 5.883 17.236 17.236 0 0 0 .862 21.476c.012.012.021.025.034.037a16.696 16.696 0 0 0 1.646 1.648c.235.21.476.411.726.603.099.077.194.154.296.229.396.3.806.578 1.23.844l.018.01c.12.073.244.148.368.219.222.133.45.26.68.38l.144.074c.334.173.674.337 1.023.489l.219.093.015.006c.164.068.328.133.494.194.548.21 1.107.39 1.675.538a17.195 17.195 0 0 0 6.06.504 17.128 17.128 0 0 0 3.595-.726l.009-.003c.738-.236 1.46-.522 2.159-.857.003-.003.01-.003.012-.006.158-.074.31-.155.464-.232l.074-.037c.123-.065.247-.13.37-.198.31-.17.612-.35.912-.54a8.816 8.816 0 0 0 .596-.399c.151-.106.302-.214.45-.325.047-.035.096-.069.143-.106a17.236 17.236 0 0 0 5.844-19.38Zm-6.412 18.63c-.102.08-.206.157-.312.228a5.075 5.075 0 0 1-.309.22c-.089.064-.179.126-.271.185l-.028.018c-.068.047-.136.09-.204.133-.256.161-.516.316-.778.464l-.084.047c-.117.065-.234.126-.352.188-.015.01-.034.016-.05.025l-.018.01c-.148.077-.3.15-.45.222-.585.281-1.186.525-1.801.73-.08.027-.16.055-.241.08a16.18 16.18 0 0 1-4.939.764 16.031 16.031 0 0 1-4.197-.55 15.232 15.232 0 0 1-2.06-.7c-.035-.015-.072-.027-.106-.043l-.105-.043a14.501 14.501 0 0 1-.967-.46l-.135-.072a15.32 15.32 0 0 1-1.294-.76l-.072-.047a15.343 15.343 0 0 1-1.084-.782c-.237-.18-.466-.371-.688-.57-.118-.098-.232-.206-.343-.308a15.704 15.704 0 0 1-1.242-1.286c-.13-.149-.256-.297-.377-.452a16.292 16.292 0 0 1 5.361-24.754 16.25 16.25 0 0 1 18 2.274 16.298 16.298 0 0 1-.853 25.238Z"/><path fill="#fff" d="M53.982 93.234A17.228 17.228 0 0 0 43.9 82.816a17.189 17.189 0 0 0-14.457.986 17.211 17.211 0 0 0-8.578 11.69 17.243 17.243 0 0 0 3.862 14.683c.012.012.021.025.034.037a16.744 16.744 0 0 0 1.646 1.648c.235.21.475.411.726.603.488.385.998.744 1.525 1.073l.019.009c.343.213.692.411 1.047.6l.145.074c.334.173.674.337 1.023.489.07.031.148.062.219.092.006.004.01.004.015.007.705.293 1.43.538 2.168.732a17.187 17.187 0 0 0 6.06.504 17.089 17.089 0 0 0 3.596-.726l.009-.003c.738-.236 1.46-.522 2.159-.857.003-.003.01-.003.012-.006.158-.074.31-.155.463-.232l.075-.037c.123-.065.247-.13.37-.198.31-.17.612-.349.912-.541a16.477 16.477 0 0 0 1.047-.723c.046-.034.095-.068.142-.106a17.217 17.217 0 0 0 6.067-8.739 17.239 17.239 0 0 0-.224-10.641Z"/><path fill="#2F2E41" d="M43.411 105.996a2.58 2.58 0 0 0 2.579-2.582 2.58 2.58 0 0 0-2.579-2.581 2.58 2.58 0 0 0-2.578 2.581 2.58 2.58 0 0 0 2.578 2.582Z"/><path fill="#2F2E41" d="M44.13 100.904a2.573 2.573 0 0 1 2.214 1.258 2.588 2.588 0 0 1 .056 2.549 2.583 2.583 0 0 0-1.58-4.155 2.573 2.573 0 0 0-2.703 1.319 2.573 2.573 0 0 1 2.013-.971Z"/><path fill="#2F2E41" d="M38.592 103.409c4.184 0 7.576-3.395 7.576-7.584 0-4.188-3.392-7.583-7.576-7.583-4.183 0-7.575 3.395-7.575 7.584 0 4.188 3.392 7.583 7.575 7.583Z"/><path fill="#2F2E41" d="M32.647 91.12a7.571 7.571 0 0 1 10.498-.795 7.57 7.57 0 0 0-10.884.413 7.588 7.588 0 0 0 .63 10.747c.065.057.13.111.197.166a7.587 7.587 0 0 1-.441-10.53Z"/><path fill="#A0616A" d="M38.528 103.345a4.882 4.882 0 0 0 4.879-4.885 4.881 4.881 0 0 0-4.88-4.884 4.882 4.882 0 0 0-4.878 4.884 4.882 4.882 0 0 0 4.879 4.885Z"/><path fill="#32C0C6" d="M47.258 111.186v1.639c-.3.191-.602.371-.91.541-.124.068-.248.133-.371.198l-.075.037c-.154.077-.305.157-.463.232-.003.003-.01.003-.012.006-.7.335-1.42.621-2.16.856-.002 0-.005.003-.009.003a17.09 17.09 0 0 1-3.595.727 17.186 17.186 0 0 1-6.06-.504 16.582 16.582 0 0 1-2.168-.733l-.015-.006-.22-.093a16.156 16.156 0 0 1-1.022-.488l-.145-.074a17.96 17.96 0 0 1-1.047-.6l-.019-.01a16.94 16.94 0 0 1-1.525-1.072c-.25-.192-.492-.393-.726-.603a16.745 16.745 0 0 1-1.646-1.648c.053-.322.131-.64.234-.95l.003-.003c.019-.053.04-.104.065-.154a1.19 1.19 0 0 1 .059-.13c.553-1.036 1.553-1.293 2.795-1.348.701-.031 1.476.003 2.295-.006.432-.004.88-.019 1.328-.059 2.826-.257 2.314-1.927 2.44-2.826.127-.872.911-.118.964-.068l.003.003a9.96 9.96 0 0 0 5.127.9 9.56 9.56 0 0 1 .908-.068c.797-.01.624.219.35.408a3.497 3.497 0 0 1-.418.235s-.127.773-.256 1.929c-.124 1.107 1.995 1.626 2.171 1.667a.026.026 0 0 0 .012.003 4.242 4.242 0 0 1 2.351.062h.003a2.788 2.788 0 0 1 1.754 1.997Z"/><path fill="#2F2E41" d="M31.466 113.174c0 .229-.006.448-.015.656-.003.123-.01.244-.016.358l-.015-.006-.22-.093a16.156 16.156 0 0 1-1.022-.488l-.145-.074a17.96 17.96 0 0 1-1.047-.6c.01-.108.025-.217.04-.325a9.959 9.959 0 0 0-.8-5.59v-.003c-.062-.124-.099-.192-.099-.192s.9-.773 2.18 0a.762.762 0 0 1 .214.186c.772.912.982 3.979.945 6.171ZM45.492 112.754c-.013.346-.031.708-.053 1.076v.003c-.003.003-.01.003-.012.006-.7.335-1.42.621-2.16.856-.002 0-.005.003-.008.003l-.034-.868-.004-.115-.163-4.23a.711.711 0 0 1 .707-.742h1.566c.077 0 .133.158.17.442v.004a26.826 26.826 0 0 1-.01 3.565ZM34.355 92.355v4.886h1.13l1.438-1.543-.193 1.543h4.995l-.31-1.543.618 1.543h.797v-4.886h-8.475Z"/><path fill="#A0616A" d="M33.585 98.14c.213 0 .385-.317.385-.708 0-.39-.172-.707-.385-.707-.213 0-.385.317-.385.707 0 .39.172.707.385.707ZM43.471 98.14c.213 0 .385-.317.385-.708 0-.39-.172-.707-.385-.707-.213 0-.385.317-.385.707 0 .39.172.707.385.707Z"/><path fill="#32C0C6" d="M48.305 112.101a15.876 15.876 0 0 1-1.958 1.265c-.123.068-.247.133-.37.198v-3.408s.494.396 1.281 1.055c.1.083.201.17.31.262.228.192.475.402.737.628Z"/><path fill="#3F3D56" d="M53.982 93.234A17.228 17.228 0 0 0 43.9 82.816a17.189 17.189 0 0 0-14.457.986 17.211 17.211 0 0 0-8.578 11.69 17.243 17.243 0 0 0 3.862 14.683c.012.012.021.025.034.037a16.744 16.744 0 0 0 1.646 1.648c.235.21.475.411.726.603.488.385.998.744 1.525 1.073l.019.009c.343.213.692.411 1.047.6l.145.074c.334.173.674.337 1.023.489.07.031.148.062.219.092.006.004.01.004.015.007.705.293 1.43.538 2.168.732a17.187 17.187 0 0 0 6.06.504 17.089 17.089 0 0 0 3.596-.726l.009-.003c.738-.236 1.46-.522 2.159-.857.003-.003.01-.003.012-.006.158-.074.31-.155.463-.232l.075-.037c.123-.065.247-.13.37-.198.31-.17.612-.349.912-.541a16.477 16.477 0 0 0 1.047-.723c.046-.034.095-.068.142-.106a17.217 17.217 0 0 0 6.067-8.739 17.239 17.239 0 0 0-.224-10.641Zm-6.412 18.629c-.102.08-.207.158-.312.229a5.267 5.267 0 0 1-.309.219c-.09.065-.179.127-.271.186a18.948 18.948 0 0 1-1.01.615l-.084.047c-.117.065-.235.126-.352.188-.015.01-.034.016-.05.025l-.018.009a15.335 15.335 0 0 1-2.252.953c-.08.027-.16.055-.24.08a16.263 16.263 0 0 1-4.94.764 15.995 15.995 0 0 1-4.197-.551 15.261 15.261 0 0 1-2.06-.698l-.21-.087a1.764 1.764 0 0 1-.108-.05c-.29-.126-.577-.265-.858-.411l-.136-.071a15.28 15.28 0 0 1-1.366-.807 16.57 16.57 0 0 1-1.084-.782 10.882 10.882 0 0 1-.689-.569c-.117-.099-.231-.207-.342-.309a15.764 15.764 0 0 1-1.242-1.287 10.04 10.04 0 0 1-.454-.547 16.291 16.291 0 0 1 5.438-24.658 16.25 16.25 0 0 1 18 2.275 16.299 16.299 0 0 1-.853 25.237Z"/><path fill="#2F2E41" d="M37.83 166.273a6.745 6.745 0 0 0 6.741-6.749 6.745 6.745 0 0 0-6.741-6.749 6.745 6.745 0 0 0-6.742 6.749 6.745 6.745 0 0 0 6.742 6.749Z"/><path fill="#2F2E41" d="M32.568 155.885c1.09-1.09 1.31-2.638.493-3.455-.817-.818-2.362-.597-3.452.493-1.09 1.091-1.31 2.638-.493 3.456.817.818 2.363.597 3.452-.494ZM44.856 153.742c.454-1.064-.326-2.417-1.743-3.023-1.417-.606-2.933-.235-3.387.829-.454 1.064.326 2.417 1.743 3.023 1.417.606 2.933.235 3.387-.829Z"/><path fill="#CACACA" d="m45.894 172.615-.794-1.252a3.117 3.117 0 0 0-5.7 2.53l.226.811.257.92a17.59 17.59 0 0 0 3.075-.675c.74-.234 1.462-.521 2.161-.857.004-.004.008-.004.012-.008.156-.074.308-.152.463-.23a.551.551 0 0 0 .074-.039 10.976 10.976 0 0 0 .732-.405l-.506-.795Z"/><path fill="#FFB6B6" d="M38.044 166.863a5.725 5.725 0 0 0 5.721-5.728 5.725 5.725 0 0 0-5.721-5.728 5.725 5.725 0 0 0-5.722 5.728 5.725 5.725 0 0 0 5.722 5.728Z"/><path fill="#CACACA" d="M46.307 172.369a12.372 12.372 0 0 0-2.325-2.822 3.4 3.4 0 0 0-2.266-.865h-8.06a3.403 3.403 0 0 0-3.251 4.389c.058.182.13.359.215.53l.397.795.093.039c.008.004.012.004.016.008.163.066.327.132.494.195.548.209 1.107.389 1.674.537.914.246 1.846.414 2.788.503a17.108 17.108 0 0 0 3.275 0c.175-.015.35-.035.525-.054a17.589 17.589 0 0 0 3.076-.675c.74-.234 1.462-.521 2.161-.857.004-.004.008-.004.012-.008.155-.074.307-.152.463-.23a.54.54 0 0 0 .074-.039 9.41 9.41 0 0 0 .37-.195 5.39 5.39 0 0 0 .362-.21c.125-.066.241-.141.362-.215-.148-.292-.3-.565-.455-.826Z"/><path fill="#CACACA" d="M35.117 169.726a3.113 3.113 0 0 0-4.135 1.489l-.717 1.084-.342.518-.522.788.323.175.144.074c.335.172.674.335 1.024.487.039.02.082.035.125.055l.093.039c.008.004.012.004.016.008.163.066.327.132.494.195.548.209 1.107.389 1.674.537.914.246 1.846.414 2.788.503l.273-.924.265-.88a3.127 3.127 0 0 0-1.503-4.148Z"/><path fill="#2F2E41" d="M32.032 157.532a7.772 7.772 0 0 0 4.447 1.376 4.774 4.774 0 0 1-1.89.779 15.69 15.69 0 0 0 6.41.036c.47-.076.924-.232 1.341-.462a1.694 1.694 0 0 0 .828-1.108c.141-.805-.485-1.535-1.135-2.028a8.384 8.384 0 0 0-7.041-1.408 3.857 3.857 0 0 0-2.085 1.18 1.899 1.899 0 0 0-.176 2.258l-.699-.623Z"/><path fill="#3F3D56" d="M53.984 152.869a17.227 17.227 0 0 0-10.082-10.419 17.181 17.181 0 0 0-14.457.985 17.214 17.214 0 0 0-8.58 11.691 17.244 17.244 0 0 0 3.895 14.721c.403.464.832.906 1.285 1.322.116.109.237.222.362.327.233.21.475.409.728.6a18.046 18.046 0 0 0 1.522 1.076c.007 0 .014.003.02.008.12.074.245.148.37.218.116.07.237.14.354.207l.323.175.144.074c.335.172.674.335 1.024.487.039.02.082.035.125.055l.093.039c.008.004.012.004.016.008.163.066.327.132.494.195.548.209 1.107.389 1.674.537.914.246 1.846.414 2.788.503a17.108 17.108 0 0 0 3.275 0c.175-.015.35-.035.525-.054a17.588 17.588 0 0 0 3.076-.675c.74-.234 1.462-.521 2.161-.857.004-.004.008-.004.012-.008.155-.074.307-.152.463-.23a.54.54 0 0 0 .074-.039 11.078 11.078 0 0 0 .732-.405c.125-.067.241-.141.362-.215l.187-.117a4.32 4.32 0 0 0 .25-.159c.116-.074.233-.156.346-.238.151-.105.303-.215.451-.328.05-.032.098-.067.144-.105a17.233 17.233 0 0 0 6.064-8.74 17.253 17.253 0 0 0-.22-10.639Zm-6.412 18.627c-.101.082-.207.16-.311.23a7.625 7.625 0 0 1-.312.222c-.09.062-.18.125-.272.183a.166.166 0 0 1-.028.02c-.066.047-.136.089-.202.132-.047.028-.094.059-.14.086a8.728 8.728 0 0 1-.413.246c-.074.046-.152.089-.226.132l-.082.047c-.12.066-.237.125-.354.187-.015.012-.035.016-.047.027a15.007 15.007 0 0 1-2.274.959c-.077.027-.16.059-.237.082a16.29 16.29 0 0 1-6.32.705 15.945 15.945 0 0 1-2.818-.491 14.822 14.822 0 0 1-2.06-.701c-.035-.016-.07-.028-.105-.043-.039-.016-.07-.027-.105-.043a1.32 1.32 0 0 1-.11-.051c-.252-.109-.505-.23-.75-.354-.036-.02-.07-.035-.106-.055l-.136-.07a13.308 13.308 0 0 1-1.008-.577 11.69 11.69 0 0 1-.288-.183l-.07-.047a17.428 17.428 0 0 1-.65-.456c-.145-.109-.293-.214-.433-.327-.237-.18-.467-.371-.69-.569-.116-.098-.233-.207-.342-.308a15.478 15.478 0 0 1-1.242-1.287 10.407 10.407 0 0 1-.377-.452c-.028-.031-.051-.062-.078-.097a16.295 16.295 0 0 1 5.437-24.662 16.25 16.25 0 0 1 18.002 2.274 16.3 16.3 0 0 1-.853 25.241Z"/><path fill="#3F3D56" d="M66.52 68.712a40.4 40.4 0 0 0-43.82-5.44A40.456 40.456 0 0 0 5.737 78.869a40.517 40.517 0 0 0 1.694 44.17 40.446 40.446 0 0 0 18.107 14.248 40.398 40.398 0 0 0 22.941 2.041 40.425 40.425 0 0 0 20.333-10.828l49.604 41.9a3.72 3.72 0 0 0 5.243-.447 3.731 3.731 0 0 0-.431-5.25l-.006-.005-49.603-41.9a40.52 40.52 0 0 0-7.1-54.085Zm-3.198 50.05a30.293 30.293 0 0 1-14.758 9.582 30.26 30.26 0 0 1-17.588-.241 30.295 30.295 0 0 1-14.49-9.981 30.35 30.35 0 0 1-2.842-33.58 30.311 30.311 0 0 1 12.606-12.28 30.269 30.269 0 0 1 33.455 3.76 30.353 30.353 0 0 1 3.617 42.74Z"/><path fill="#000" d="M20.628 122.383a30.356 30.356 0 0 1-5.141-40.773 30.34 30.34 0 0 0-8.714 23.954 30.356 30.356 0 0 0 3.277 11.371 30.314 30.314 0 0 0 17.722 14.97 30.274 30.274 0 0 0 33.87-11.308 30.28 30.28 0 0 1-41.014 1.786Z" opacity=".3"/><path fill="#FFB6B6" d="M166.52 171.966a4.19 4.19 0 0 0-1.195-6.309l-9.041-37.047-6.596 2.108 9.763 36.794a4.216 4.216 0 0 0 1.559 5.37 4.2 4.2 0 0 0 5.51-.916Z"/><path fill="#3F3D56" d="m161.847 148.268-4.82 4.163-6.744 5.82-2.978-15.256-.312-1.586-.245-1.259 6.833-11.915 5.696.327.39.023.008.086.089.799 1.168 10.516.027.254.888 8.028Z"/><path fill="#FFB6B6" d="m130.341 251.821-4.773-.001-2.271-18.431h7.045l-.001 18.432Z"/><path fill="#2F2E41" d="m131.558 256.453-15.391-.001v-.195a5.997 5.997 0 0 1 5.991-5.997l9.401.001-.001 6.192Z"/><path fill="#FFB6B6" d="M180.178 252.21h-4.773l-2.271-18.431h7.045l-.001 18.431Z"/><path fill="#2F2E41" d="M181.396 256.842h-15.392v-.195a5.99 5.99 0 0 1 5.991-5.997h9.401v6.192ZM183.993 244.873l-12.848 1.949-18.693-63.33-19.853 63.72-14.406-1.949 18.689-74.056v-5.847l2.531-8.77-.265-2.374-1.842-16.6-.798-7.199-.052-.465a1.583 1.583 0 0 1 1.243-1.722l5.996-1.262h9.8l5.782 1.594.398.109.179.051-.09.748-1.355 11.373-.074.624-1.308 10.964-.288 2.405c11.291 8.185 11.68 16.371 11.68 16.371l15.574 73.666Z"/><path fill="#FFB6B6" d="M147.411 122.036c5.281 0 9.563-4.286 9.563-9.573 0-5.287-4.282-9.573-9.563-9.573-5.281 0-9.563 4.286-9.563 9.573 0 5.287 4.282 9.573 9.563 9.573Z"/><path fill="#3F3D56" d="m157.455 152.636-18.917 2.477.353 2.705 18.918-2.476-.354-2.706Z"/><path fill="#FFB6B6" d="M113.163 155.929c.181.117.352.248.513.392l18.71-4.775 1.277-4.519 7.064 1.037-1.483 8.22a3.119 3.119 0 0 1-2.739 2.547l-21.847 2.303a4.086 4.086 0 0 1-7.62-.625 4.092 4.092 0 0 1 3.777-5.219 4.08 4.08 0 0 1 2.348.639Z"/><path fill="#3F3D56" d="m141.943 130.67-3.309-2.533c-.895-.34-2.121.626-2.336 1.559l-4.673 19.099 9.734 7.016 1.363-2.144-.779-22.997Z"/><path fill="#000" d="M160.932 139.986c-.826.328-1.668.614-2.523.857-.272.082-.553.16-.829.234-1.822.506-3.695.81-5.584.905-.813.034-1.627.012-2.437-.067a13.677 13.677 0 0 1-2.566-.506l-.085-.024a11.252 11.252 0 0 1-4.653-2.646 9.265 9.265 0 0 1-.822-.916 8.293 8.293 0 0 1-1.775-6.443c.032-.207.077-.411.132-.612a9.84 9.84 0 0 1 .58-1.598c.105-.242.222-.48.347-.713l4.399-1.489h8.379l5.782 1.594.39.023.007.086.18.051-.09.748 1.168 10.516Z" opacity=".2"/><path fill="#2F2E41" d="M140.083 104.538c-1.788-.22-3.751-.065-5.145 1.078-1.394 1.143-1.843 3.519-.524 4.747 1.169 1.087 2.996.832 4.561 1.141a6.18 6.18 0 0 1 4.821 5.907c-.023 3.966-3.825 6.969-4.508 10.875-.466 2.666.657 5.472 2.599 7.355 1.942 1.883 4.611 2.901 7.301 3.177 2.689.275 5.409-.146 8.023-.838 2.625-.694 5.209-1.68 7.411-3.269 2.202-1.589 4.008-3.83 4.715-6.454.707-2.624.199-5.632-1.623-7.647-2.087-2.307-5.558-3.1-7.363-5.634-2.023-2.841-1.274-6.886-2.912-9.966-1.093-2.056-3.163-3.458-5.37-4.197-2.206-.739-4.562-.885-6.888-.956-1.223-.038-2.482-.05-3.621.396-1.139.446-2.14 1.463-2.199 2.686-.059 1.223.722 1.599.722 1.599Z"/><path fill="#CACACA" d="M229.611 257H81.267a.39.39 0 1 1 0-.78h148.344a.39.39 0 0 1 0 .78Z"/></g><defs><clipPath id="a"><path fill="#fff" d="M0 0h230v257H0z"/></clipPath></defs></svg>